<?xml version="1.0" encoding="iso-8859-1"?>
<!-- Generator: Adobe Illustrator 19.0.0, SVG Export Plug-In . SVG Version: 6.00 Build 0)  -->
<svg version="1.1" id="Capa_1" xmlns="http://www.w3.org/2000/svg" xmlns:xlink="http://www.w3.org/1999/xlink" x="0px" y="0px"
	 viewBox="0 0 512.006 512.006" style="enable-background:new 0 0 512.006 512.006;" xml:space="preserve">
<path style="fill:#86DBD5;" d="M179.208,1.115L56.991,33.863c-11.287,3.024-20.103,11.84-23.127,23.127L1.116,179.207
	c-3.024,11.287,0.203,23.33,8.465,31.592l89.469,89.469c8.262,8.262,20.305,11.489,31.592,8.465l52.881-14.17
	c7.131-1.911,14.74,0.128,19.96,5.348l32.527,32.527c1.452,1.452,2.116,3.515,1.784,5.542l-5.207,31.734
	c-1.868,11.385,7.99,21.243,19.375,19.375l31.56-5.178c1.228-0.201,2.51-0.123,3.653,0.366c2.84,1.216,4.309,4.108,3.846,6.931
	l-5.207,31.734c-1.868,11.385,7.99,21.243,19.375,19.375l31.734-5.207c2.027-0.333,4.089,0.331,5.542,1.784l0,0
	c1.452,1.452,2.116,3.515,1.784,5.542l-5.207,31.734c-1.868,11.385,7.99,21.243,19.375,19.375l31.734-5.207
	c2.027-0.333,4.09,0.331,5.542,1.784l7.441,7.441c6.154,6.154,14.408,9.753,23.105,10.076l63.509,2.352
	c12.47,0.462,22.703-9.771,22.241-22.241l-2.351-63.509c-0.322-8.698-3.921-16.952-10.076-23.106l-199.65-199.653
	c-5.22-5.22-7.259-12.829-5.348-19.96l14.169-52.881c3.025-11.287-0.203-23.329-8.465-31.592L210.8,9.58
	C202.537,1.318,190.494-1.909,179.208,1.115z M116.547,116.546c-11.386,11.386-29.847,11.386-41.233,0s-11.386-29.847,0-41.233
	s29.847-11.386,41.234,0S127.934,105.16,116.547,116.546z"/>
<path style="opacity:0.1;enable-background:new    ;" d="M468.664,438.935c-1.919,0-3.839-0.732-5.304-2.197L273.327,246.705
	c-2.929-2.929-2.929-7.678,0-10.607c2.93-2.929,7.678-2.929,10.607,0l190.034,190.034c2.929,2.929,2.929,7.678,0,10.607
	C472.504,438.203,470.583,438.935,468.664,438.935z"/>
<g>
	
		<ellipse transform="matrix(-0.7071 -0.7071 0.7071 -0.7071 37.187 454.0303)" style="fill:#FFFFFF;" cx="112.626" cy="219.313" rx="22.17" ry="27.835"/>
	
		<ellipse transform="matrix(0.7071 0.7071 -0.7071 0.7071 143.8732 -122.0937)" style="fill:#FFFFFF;" cx="219.317" cy="112.623" rx="22.17" ry="27.835"/>
</g>
<g>
	<path style="fill:#495059;" d="M108.465,199.708c-1.919,0-3.839-0.732-5.304-2.197l-6.95-6.95c-2.929-2.929-2.929-7.678,0-10.606
		c2.93-2.929,7.678-2.929,10.607,0l6.95,6.95c2.929,2.929,2.929,7.678,0,10.606C112.304,198.975,110.384,199.708,108.465,199.708z"
		/>
	<path style="fill:#495059;" d="M192.209,115.964c-1.919,0-3.839-0.732-5.303-2.196l-6.951-6.951
		c-2.93-2.929-2.93-7.678-0.001-10.607c2.93-2.929,7.679-2.929,10.606,0l6.951,6.951c2.93,2.929,2.93,7.678,0.001,10.607
		C196.048,115.231,194.128,115.964,192.209,115.964z"/>
	<path style="fill:#495059;" d="M141.033,169.232c-0.646,0-1.293-0.022-1.941-0.066c-4.133-0.284-7.253-3.864-6.969-7.997
		c0.283-4.132,3.875-7.251,7.996-6.968c3.827,0.264,7.555-1.134,10.251-3.831c2.697-2.697,4.094-6.434,3.832-10.252
		c-0.283-4.132,2.837-7.712,6.969-7.996c4.137-0.28,7.713,2.836,7.996,6.969c0.559,8.145-2.427,16.123-8.19,21.886
		C155.673,166.281,148.492,169.232,141.033,169.232z"/>
</g>
<path style="opacity:0.1;enable-background:new    ;" d="M378.763,419.593c-1.919,0-3.839-0.732-5.304-2.197L238.047,281.984
	c-2.929-2.929-2.929-7.678,0-10.607c2.93-2.929,7.678-2.929,10.607,0L384.066,406.79c2.929,2.929,2.929,7.678,0,10.606
	C382.603,418.86,380.682,419.593,378.763,419.593z"/>
<path style="opacity:0.1;enable-background:new    ;" d="M510.73,497.756c-107.368-47.596-234.59-184.98-286.438-245.917
	c-10.5-12.341-26.463-18.573-42.571-16.823C75.862,246.516,52.527,169.329,66.954,99.048c-0.735-6.869,0.978-13.934,5.113-19.827
	c6.773-21.735,16.961-41.834,29.105-57.196L56.991,33.863c-11.287,3.024-20.103,11.84-23.127,23.127L1.116,179.207
	c-3.024,11.287,0.203,23.329,8.465,31.592l89.469,89.469c8.262,8.262,20.305,11.489,31.592,8.465l52.881-14.17
	c7.131-1.911,14.74,0.128,19.96,5.348l32.526,32.527c1.452,1.452,2.116,3.515,1.783,5.542l-5.207,31.734
	c-1.868,11.385,7.99,21.243,19.375,19.375l31.56-5.178c1.157-0.19,2.363-0.143,3.455,0.285c2.969,1.164,4.518,4.124,4.044,7.012
	l-5.207,31.734c-1.868,11.385,7.99,21.243,19.375,19.375l31.508-5.17c1.404-0.23,2.874-0.089,4.139,0.562
	c2.554,1.314,3.85,4.052,3.411,6.726l-5.207,31.734c-1.868,11.385,7.99,21.243,19.375,19.375l31.734-5.207
	c2.027-0.333,4.09,0.331,5.542,1.784l7.441,7.441c6.154,6.154,14.408,9.754,23.106,10.076l63.509,2.351
	C499.393,512.342,507.678,506.286,510.73,497.756z"/>
<path style="opacity:0.1;enable-background:new    ;" d="M185.49,230.051c-1.919,0-3.839-0.732-5.304-2.197
	c-2.929-2.929-2.929-7.678,0-10.607l37.063-37.063c2.93-2.929,7.678-2.929,10.608,0c2.929,2.929,2.929,7.678,0,10.606
	l-37.063,37.063C189.329,229.319,187.409,230.051,185.49,230.051z"/>
<path style="fill:#609AD6;" d="M352.71,175.384L352.71,175.384c-3.429,7.098-13.539,7.098-16.968,0l0,0
	c-8.819-18.258-23.556-32.995-41.814-41.814l0,0c-7.098-3.429-7.098-13.539,0-16.968l0,0c18.258-8.819,32.995-23.556,41.814-41.814
	l0,0c3.429-7.098,13.539-7.098,16.968,0l0,0c8.819,18.258,23.556,32.994,41.814,41.814l0,0c7.098,3.429,7.098,13.539,0,16.968l0,0
	C376.266,142.389,361.529,157.126,352.71,175.384z"/>
<g>
	<path style="fill:#B8DBFF;" d="M129.531,461.915L129.531,461.915c-3.429,7.098-13.539,7.098-16.968,0l0,0
		c-8.819-18.258-23.556-32.995-41.814-41.814l0,0c-7.098-3.429-7.098-13.539,0-16.968l0,0c18.258-8.819,32.994-23.556,41.814-41.814
		l0,0c3.429-7.098,13.539-7.098,16.968,0l0,0c8.819,18.258,23.556,32.995,41.814,41.814l0,0c7.098,3.429,7.098,13.539,0,16.968l0,0
		C153.087,428.921,138.35,443.657,129.531,461.915z"/>
	<path style="fill:#B8DBFF;" d="M479.868,294.811L479.868,294.811c-2.337,4.839-9.229,4.839-11.567,0l0,0
		c-6.012-12.446-16.058-22.492-28.504-28.504l0,0c-4.839-2.337-4.839-9.229,0-11.567l0,0c12.446-6.012,22.492-16.058,28.504-28.504
		l0,0c2.337-4.839,9.229-4.839,11.567,0l0,0c6.012,12.446,16.058,22.492,28.504,28.504l0,0c4.839,2.337,4.839,9.229,0,11.567l0,0
		C495.926,272.319,485.88,282.365,479.868,294.811z"/>
</g>
<g>
</g>
<g>
</g>
<g>
</g>
<g>
</g>
<g>
</g>
<g>
</g>
<g>
</g>
<g>
</g>
<g>
</g>
<g>
</g>
<g>
</g>
<g>
</g>
<g>
</g>
<g>
</g>
<g>
</g>
</svg>
